<svg width="150" height="35" viewBox="0 0 150 35" fill="none" xmlns="http://www.w3.org/2000/svg">
<path d="M1.5 25C0.671574 25 0 25.6716 0 26.5C0 27.3284 0.671574 28 1.5 28V25ZM39.0833 25C38.2549 25 37.5833 25.6716 37.5833 26.5C37.5833 27.3284 38.2549 28 39.0833 28V25ZM32.25 28C33.0784 28 33.75 27.3284 33.75 26.5C33.75 25.6716 33.0784 25 32.25 25V28ZM25.4167 25C24.5882 25 23.9167 25.6716 23.9167 26.5C23.9167 27.3284 24.5882 28 25.4167 28V25ZM18.5833 28C19.4118 28 20.0833 27.3284 20.0833 26.5C20.0833 25.6716 19.4118 25 18.5833 25V28ZM11.75 25C10.9216 25 10.25 25.6716 10.25 26.5C10.25 27.3284 10.9216 28 11.75 28V25ZM4.91666 28C5.74509 28 6.41666 27.3284 6.41666 26.5C6.41666 25.6716 5.74509 25 4.91666 25V28ZM42.5 25H39.0833V28H42.5V25ZM32.25 25L25.4167 25V28L32.25 28V25ZM18.5833 25H11.75V28H18.5833V25ZM4.91666 25H1.5V28H4.91666V25Z" fill="black"/>
<path d="M150 26C150 21.5817 146.418 18 142 18C137.582 18 134 21.5817 134 26C134 30.4183 137.582 34 142 34C146.418 34 150 30.4183 150 26ZM58 24.5C57.1716 24.5 56.5 25.1716 56.5 26C56.5 26.8284 57.1716 27.5 58 27.5V24.5ZM139 24.5C138.172 24.5 137.5 25.1716 137.5 26C137.5 26.8284 138.172 27.5 139 27.5V24.5ZM133 27.5C133.828 27.5 134.5 26.8284 134.5 26C134.5 25.1716 133.828 24.5 133 24.5V27.5ZM127 24.5C126.172 24.5 125.5 25.1716 125.5 26C125.5 26.8284 126.172 27.5 127 27.5V24.5ZM121 27.5C121.828 27.5 122.5 26.8284 122.5 26C122.5 25.1716 121.828 24.5 121 24.5V27.5ZM115 24.5C114.172 24.5 113.5 25.1716 113.5 26C113.5 26.8284 114.172 27.5 115 27.5V24.5ZM109 27.5C109.828 27.5 110.5 26.8284 110.5 26C110.5 25.1716 109.828 24.5 109 24.5V27.5ZM103 24.5C102.172 24.5 101.5 25.1716 101.5 26C101.5 26.8284 102.172 27.5 103 27.5V24.5ZM97 27.5C97.8284 27.5 98.5 26.8284 98.5 26C98.5 25.1716 97.8284 24.5 97 24.5V27.5ZM91 24.5C90.1716 24.5 89.5 25.1716 89.5 26C89.5 26.8284 90.1716 27.5 91 27.5V24.5ZM85 27.5C85.8284 27.5 86.5 26.8284 86.5 26C86.5 25.1716 85.8284 24.5 85 24.5V27.5ZM79 24.5C78.1716 24.5 77.5 25.1716 77.5 26C77.5 26.8284 78.1716 27.5 79 27.5V24.5ZM73 27.5C73.8284 27.5 74.5 26.8284 74.5 26C74.5 25.1716 73.8284 24.5 73 24.5V27.5ZM67 24.5C66.1716 24.5 65.5 25.1716 65.5 26C65.5 26.8284 66.1716 27.5 67 27.5V24.5ZM61 27.5C61.8284 27.5 62.5 26.8284 62.5 26C62.5 25.1716 61.8284 24.5 61 24.5V27.5ZM142 24.5H139V27.5H142V24.5ZM133 24.5H127V27.5H133V24.5ZM121 24.5H115V27.5H121V24.5ZM109 24.5H103V27.5H109V24.5ZM97 24.5H91V27.5H97V24.5ZM85 24.5H79V27.5H85V24.5ZM73 24.5L67 24.5V27.5L73 27.5V24.5ZM61 24.5H58V27.5H61V24.5Z" fill="#2274A5"/>
<circle cx="142" cy="26" r="3" fill="white"/>
<path d="M0.230114 23L3.12784 5.54545H10.4062C11.7131 5.54545 12.7784 5.73011 13.6023 6.09943C14.4261 6.46875 15.0057 6.98579 15.3409 7.65057C15.6818 8.31534 15.7784 9.08523 15.6307 9.96023C15.5114 10.6193 15.267 11.2102 14.8977 11.733C14.5341 12.25 14.0795 12.6818 13.5341 13.0284C12.9886 13.3693 12.3864 13.608 11.7273 13.7443L11.6932 13.9148C12.3977 13.9432 13.0199 14.1307 13.5597 14.4773C14.1051 14.8239 14.5085 15.3097 14.7699 15.9347C15.0313 16.554 15.0909 17.2812 14.9489 18.1165C14.7955 19.054 14.4176 19.892 13.8153 20.6307C13.2188 21.3636 12.4318 21.9432 11.4545 22.3693C10.4773 22.7898 9.34659 23 8.0625 23H0.230114ZM5.02841 19.5994H7.63636C8.53977 19.5994 9.23864 19.4261 9.73295 19.0795C10.233 18.7273 10.5284 18.2443 10.6193 17.6307C10.6932 17.1818 10.6534 16.7955 10.5 16.4716C10.3466 16.142 10.0909 15.8892 9.73295 15.7131C9.375 15.5312 8.9233 15.4403 8.37784 15.4403H5.69318L5.02841 19.5994ZM6.16193 12.7216H8.50568C8.96023 12.7216 9.37784 12.6449 9.75852 12.4915C10.1449 12.3381 10.4631 12.1165 10.7131 11.8267C10.9688 11.5369 11.1278 11.1875 11.1903 10.7784C11.2869 10.1932 11.1534 9.73295 10.7898 9.39773C10.4261 9.0625 9.89489 8.89489 9.19602 8.89489H6.79261L6.16193 12.7216ZM48.8523 27.9091C48.3523 27.9091 47.8864 27.8693 47.4545 27.7898C47.0284 27.7159 46.6648 27.6165 46.3636 27.4915L47.7955 24.4659C48.1761 24.6023 48.5256 24.679 48.8438 24.696C49.1676 24.7188 49.4574 24.6648 49.7131 24.5341C49.9744 24.4091 50.2017 24.1847 50.3949 23.8608L50.6335 23.4602L48.2386 9.90909H52.4489L53.3011 19.2585H53.4375L57.4432 9.90909H61.9858L54.6818 24.2528C54.3125 24.9688 53.8665 25.6023 53.3438 26.1534C52.821 26.7045 52.1903 27.1335 51.4517 27.4403C50.7188 27.7528 49.8523 27.9091 48.8523 27.9091Z" fill="#2274A5"/>
<path d="M63.1491 8.97159L63.7287 5.54545H78.4815L77.902 8.97159H72.6094L70.2912 23H66.1321L68.4503 8.97159H63.1491ZM76.2848 23L78.4666 9.90909H82.5149L82.1143 12.2955H82.2507C82.6314 11.4318 83.1286 10.7898 83.7422 10.3693C84.3558 9.94318 85.0206 9.73011 85.7365 9.73011C85.9297 9.73011 86.1229 9.74432 86.3161 9.77273C86.5149 9.79545 86.7024 9.82955 86.8786 9.875L86.2649 13.5057C86.0717 13.4318 85.8189 13.3778 85.5064 13.3438C85.1939 13.304 84.9098 13.2841 84.6541 13.2841C84.1598 13.2841 83.6996 13.3949 83.2734 13.6165C82.853 13.8324 82.495 14.1364 82.1996 14.5284C81.9098 14.9148 81.7195 15.3693 81.6286 15.892L80.4524 23H76.2848ZM89.5504 23.2216C88.7209 23.2216 88.005 23.0824 87.4027 22.804C86.8061 22.5199 86.3686 22.0909 86.0902 21.517C85.8175 20.9432 85.7521 20.2273 85.8942 19.3693C86.0192 18.642 86.2493 18.0312 86.5845 17.5369C86.9254 17.0369 87.343 16.6307 87.8374 16.3182C88.3374 16.0057 88.8942 15.767 89.5078 15.6023C90.1214 15.4375 90.7635 15.3267 91.4339 15.2699C92.1839 15.2017 92.7919 15.1278 93.2578 15.0483C93.7294 14.9687 94.0817 14.858 94.3146 14.7159C94.5476 14.5682 94.6896 14.3636 94.7408 14.1023V14.0597C94.8089 13.6222 94.7152 13.2841 94.4595 13.0455C94.2038 12.8068 93.8203 12.6875 93.3089 12.6875C92.7635 12.6875 92.2976 12.8068 91.9112 13.0455C91.5249 13.2841 91.255 13.6136 91.1016 14.0341L87.2834 13.8977C87.522 13.1023 87.9311 12.392 88.5107 11.767C89.0902 11.1364 89.826 10.642 90.718 10.2841C91.6158 9.92045 92.6527 9.73864 93.8288 9.73864C94.6584 9.73864 95.4084 9.83807 96.0788 10.0369C96.7493 10.2301 97.3146 10.5142 97.7749 10.8892C98.2408 11.2585 98.5732 11.7131 98.772 12.2528C98.9709 12.7926 99.0135 13.4091 98.8999 14.1023L97.4084 23H93.4879L93.7947 21.1761H93.6925C93.3857 21.6193 93.0249 21.9943 92.6101 22.3011C92.201 22.608 91.7408 22.8381 91.2294 22.9915C90.718 23.1449 90.1584 23.2216 89.5504 23.2216ZM91.3061 20.4943C91.7436 20.4943 92.1584 20.4034 92.5504 20.2216C92.9425 20.0398 93.272 19.7898 93.5391 19.4716C93.8118 19.1477 93.9851 18.7727 94.0589 18.3466L94.255 17.1023C94.1357 17.1648 93.9851 17.2216 93.8033 17.2727C93.6214 17.3239 93.4283 17.3722 93.2237 17.4176C93.0192 17.4574 92.8089 17.4972 92.593 17.5369C92.3828 17.571 92.1811 17.6023 91.9879 17.6307C91.5788 17.6932 91.2237 17.7898 90.9226 17.9205C90.6214 18.0511 90.38 18.2216 90.1982 18.4318C90.022 18.6364 89.9141 18.8807 89.8743 19.1648C89.8061 19.5909 89.9055 19.9205 90.1726 20.1534C90.4396 20.3807 90.8175 20.4943 91.3061 20.4943ZM106.033 23.2472C104.653 23.2472 103.513 22.9631 102.616 22.3949C101.724 21.8267 101.099 21.0369 100.741 20.0256C100.383 19.0085 100.317 17.8324 100.545 16.4972C100.761 15.1562 101.218 13.9801 101.917 12.9688C102.616 11.9517 103.508 11.1591 104.593 10.5909C105.678 10.0227 106.906 9.73864 108.275 9.73864C109.485 9.73864 110.502 9.95739 111.326 10.3949C112.156 10.8324 112.755 11.4517 113.124 12.2528C113.499 13.0483 113.61 13.983 113.457 15.0568H109.562C109.596 14.392 109.46 13.8693 109.153 13.4886C108.846 13.1023 108.4 12.9091 107.815 12.9091C107.32 12.9091 106.866 13.0455 106.451 13.3182C106.042 13.5852 105.692 13.983 105.403 14.5114C105.119 15.0341 104.914 15.6818 104.789 16.4545C104.664 17.2273 104.656 17.8807 104.763 18.4148C104.877 18.9432 105.09 19.3437 105.403 19.6165C105.721 19.8835 106.124 20.017 106.613 20.017C106.999 20.017 107.357 19.9347 107.687 19.7699C108.016 19.6051 108.303 19.3636 108.548 19.0455C108.792 18.7216 108.982 18.3295 109.119 17.8693H113.005C112.783 18.9545 112.354 19.9006 111.718 20.7074C111.087 21.5085 110.289 22.1335 109.323 22.5824C108.357 23.0256 107.261 23.2472 106.033 23.2472ZM118.598 19.5653L119.442 14.5966H120.013L124.496 9.90909H129.217L122.638 16.625H121.538L118.598 19.5653ZM114.277 23L117.175 5.54545H121.342L118.445 23H114.277ZM122.408 23L119.885 17.5625L123.132 14.6051L127.223 23H122.408ZM128.527 23L130.709 9.90909H134.757L134.357 12.2955H134.493C134.874 11.4318 135.371 10.7898 135.984 10.3693C136.598 9.94318 137.263 9.73011 137.979 9.73011C138.172 9.73011 138.365 9.74432 138.558 9.77273C138.757 9.79545 138.945 9.82955 139.121 9.875L138.507 13.5057C138.314 13.4318 138.061 13.3778 137.749 13.3438C137.436 13.304 137.152 13.2841 136.896 13.2841C136.402 13.2841 135.942 13.3949 135.516 13.6165C135.095 13.8324 134.737 14.1364 134.442 14.5284C134.152 14.9148 133.962 15.3693 133.871 15.892L132.695 23H128.527Z" fill="black"/>
<path d="M36.9943 23.1875C36.0284 23.1875 35.1903 22.9375 34.4801 22.4375C33.7699 21.9375 33.2614 21.1875 32.9545 20.1875C32.6534 19.1875 32.625 17.946 32.8693 16.4631C33.125 14.9233 33.5795 13.6562 34.233 12.6619C34.8864 11.6676 35.6477 10.9318 36.517 10.4545C37.392 9.97727 38.2841 9.73864 39.1932 9.73864C39.8807 9.73864 40.4489 9.85795 40.8977 10.0966C41.3523 10.3295 41.7074 10.6307 41.9631 11C42.2188 11.3693 42.3949 11.7528 42.4915 12.1506H42.5852L43.6847 5.54545H47.8523L44.9545 23H40.8295L41.179 20.8778H41.0511C40.8068 21.2812 40.4943 21.6591 40.1136 22.0114C39.733 22.3636 39.2812 22.6477 38.7585 22.8636C38.2415 23.0795 37.6534 23.1875 36.9943 23.1875ZM38.9631 19.9403C39.4688 19.9403 39.9261 19.7983 40.3352 19.5142C40.7443 19.2244 41.0881 18.8182 41.3665 18.2955C41.6506 17.7727 41.8494 17.1591 41.9631 16.4545C42.0824 15.7386 42.0881 15.1222 41.9801 14.6051C41.8722 14.0881 41.6591 13.6903 41.3409 13.4119C41.0284 13.1335 40.6165 12.9943 40.1051 12.9943C39.5938 12.9943 39.1364 13.1364 38.733 13.4205C38.3295 13.7045 37.9943 14.1051 37.7273 14.6222C37.4602 15.1392 37.267 15.75 37.1477 16.4545C37.0341 17.1591 37.0227 17.7727 37.1136 18.2955C37.2102 18.8182 37.4119 19.2244 37.7188 19.5142C38.0312 19.7983 38.446 19.9403 38.9631 19.9403Z" fill="#2274A5"/>
<path d="M23.3324 23.2472C21.9517 23.2472 20.8125 22.9631 19.9148 22.3949C19.0227 21.8267 18.3949 21.0341 18.0312 20.017C17.6676 19 17.5966 17.8182 17.8182 16.4716C18.0398 15.1307 18.4972 13.9545 19.1903 12.9432C19.8835 11.9318 20.7699 11.1449 21.8494 10.5824C22.929 10.0199 24.1534 9.73864 25.5227 9.73864C26.8977 9.73864 28.0313 10.0227 28.9233 10.5909C29.821 11.1591 30.4517 11.9517 30.8153 12.9688C31.1847 13.9858 31.2585 15.1705 31.0369 16.5227C30.8153 17.8636 30.3551 19.0398 29.6562 20.0511C28.9574 21.0568 28.071 21.8409 26.9972 22.4034C25.9233 22.9659 24.7017 23.2472 23.3324 23.2472ZM23.8011 20.1023C24.3125 20.1023 24.7699 19.9489 25.1733 19.642C25.5824 19.3352 25.9261 18.9062 26.2045 18.3551C26.483 17.804 26.6818 17.1648 26.8011 16.4375C26.9205 15.7216 26.9318 15.0938 26.8352 14.554C26.7443 14.0085 26.5511 13.5852 26.2557 13.2841C25.9602 12.9773 25.5597 12.8239 25.054 12.8239C24.5426 12.8239 24.0824 12.9801 23.6733 13.2926C23.2642 13.5994 22.9205 14.0284 22.642 14.5795C22.3693 15.125 22.1733 15.7642 22.054 16.4972C21.9347 17.2131 21.9205 17.8409 22.0114 18.3807C22.1023 18.9205 22.2983 19.3438 22.5994 19.6506C22.9006 19.9517 23.3011 20.1023 23.8011 20.1023Z" fill="#2274A5"/>
<path d="M55.5708 25.1425C56.2182 25.5309 56.2182 26.4691 55.5708 26.8575L43.5145 34.0913C42.848 34.4912 42 34.0111 42 33.2338L42 18.7662C42 17.9889 42.848 17.5088 43.5145 17.9087L55.5708 25.1425Z" fill="black"/>
</svg>
