<svg width="32" height="33" viewBox="0 0 32 33" fill="none" xmlns="http://www.w3.org/2000/svg">
<path d="M0.230114 23L3.12784 5.54545H10.4062C11.7131 5.54545 12.7784 5.73011 13.6023 6.09943C14.4261 6.46875 15.0057 6.98579 15.3409 7.65057C15.6818 8.31534 15.7784 9.08523 15.6307 9.96023C15.5114 10.6193 15.267 11.2102 14.8977 11.733C14.5341 12.25 14.0795 12.6818 13.5341 13.0284C12.9886 13.3693 12.3864 13.608 11.7273 13.7443L11.6932 13.9148C12.3977 13.9432 13.0199 14.1307 13.5597 14.4773C14.1051 14.8239 14.5085 15.3097 14.7699 15.9347C15.0313 16.554 15.0909 17.2812 14.9489 18.1165C14.7955 19.054 14.4176 19.892 13.8153 20.6307C13.2188 21.3636 12.4318 21.9432 11.4545 22.3693C10.4773 22.7898 9.34659 23 8.0625 23H0.230114ZM5.02841 19.5994H7.63636C8.53977 19.5994 9.23864 19.4261 9.73295 19.0795C10.233 18.7273 10.5284 18.2443 10.6193 17.6307C10.6932 17.1818 10.6534 16.7955 10.5 16.4716C10.3466 16.142 10.0909 15.8892 9.73295 15.7131C9.375 15.5312 8.9233 15.4403 8.37784 15.4403H5.69318L5.02841 19.5994ZM6.16193 12.7216H8.50568C8.96023 12.7216 9.37784 12.6449 9.75852 12.4915C10.1449 12.3381 10.4631 12.1165 10.7131 11.8267C10.9688 11.5369 11.1278 11.1875 11.1903 10.7784C11.2869 10.1932 11.1534 9.73295 10.7898 9.39773C10.4261 9.0625 9.89489 8.89489 9.19602 8.89489H6.79261L6.16193 12.7216Z" fill="#2274A5"/>
<path d="M15.9773 12.9716L16.5568 9.54545H31.3097L30.7301 12.9716H25.4375L23.1193 27H18.9602L21.2784 12.9716H15.9773Z" fill="black"/>
</svg>
