<svg width="151" height="35" viewBox="0 0 151 35" fill="none" xmlns="http://www.w3.org/2000/svg">
<path d="M2 24.5C1.17157 24.5 0.499999 25.1716 0.499999 26C0.499999 26.8284 1.17157 27.5 2 27.5V24.5ZM59 24.5C58.1716 24.5 57.5 25.1716 57.5 26C57.5 26.8284 58.1716 27.5 59 27.5V24.5ZM53 27.5C53.8284 27.5 54.5 26.8284 54.5 26C54.5 25.1716 53.8284 24.5 53 24.5V27.5ZM47 24.5C46.1716 24.5 45.5 25.1716 45.5 26C45.5 26.8284 46.1716 27.5 47 27.5V24.5ZM41 27.5C41.8284 27.5 42.5 26.8284 42.5 26C42.5 25.1716 41.8284 24.5 41 24.5V27.5ZM35 24.5C34.1716 24.5 33.5 25.1716 33.5 26C33.5 26.8284 34.1716 27.5 35 27.5V24.5ZM29 27.5C29.8284 27.5 30.5 26.8284 30.5 26C30.5 25.1716 29.8284 24.5 29 24.5V27.5ZM23 24.5C22.1716 24.5 21.5 25.1716 21.5 26C21.5 26.8284 22.1716 27.5 23 27.5V24.5ZM17 27.5C17.8284 27.5 18.5 26.8284 18.5 26C18.5 25.1716 17.8284 24.5 17 24.5V27.5ZM11 24.5C10.1716 24.5 9.5 25.1716 9.5 26C9.5 26.8284 10.1716 27.5 11 27.5V24.5ZM5 27.5C5.82843 27.5 6.5 26.8284 6.5 26C6.5 25.1716 5.82843 24.5 5 24.5V27.5ZM62 24.5H59V27.5H62V24.5ZM53 24.5H47V27.5H53V24.5ZM41 24.5H35V27.5H41V24.5ZM29 24.5H23V27.5H29V24.5ZM17 24.5H11V27.5H17V24.5ZM5 24.5H2V27.5H5V24.5Z" fill="black"/>
<path d="M151 26C151 21.5817 147.418 18 143 18C138.582 18 135 21.5817 135 26C135 30.4183 138.582 34 143 34C147.418 34 151 30.4183 151 26ZM65 24.5C64.1716 24.5 63.5 25.1716 63.5 26C63.5 26.8284 64.1716 27.5 65 27.5V24.5ZM140.214 24.5C139.386 24.5 138.714 25.1716 138.714 26C138.714 26.8284 139.386 27.5 140.214 27.5V24.5ZM134.643 27.5C135.471 27.5 136.143 26.8284 136.143 26C136.143 25.1716 135.471 24.5 134.643 24.5V27.5ZM129.071 24.5C128.243 24.5 127.571 25.1716 127.571 26C127.571 26.8284 128.243 27.5 129.071 27.5V24.5ZM123.5 27.5C124.328 27.5 125 26.8284 125 26C125 25.1716 124.328 24.5 123.5 24.5V27.5ZM117.929 24.5C117.1 24.5 116.429 25.1716 116.429 26C116.429 26.8284 117.1 27.5 117.929 27.5V24.5ZM112.357 27.5C113.186 27.5 113.857 26.8284 113.857 26C113.857 25.1716 113.186 24.5 112.357 24.5V27.5ZM106.786 24.5C105.957 24.5 105.286 25.1716 105.286 26C105.286 26.8284 105.957 27.5 106.786 27.5V24.5ZM101.214 27.5C102.043 27.5 102.714 26.8284 102.714 26C102.714 25.1716 102.043 24.5 101.214 24.5V27.5ZM95.6429 24.5C94.8144 24.5 94.1429 25.1716 94.1429 26C94.1429 26.8284 94.8144 27.5 95.6429 27.5V24.5ZM90.0714 27.5C90.8998 27.5 91.5714 26.8284 91.5714 26C91.5714 25.1716 90.8998 24.5 90.0714 24.5V27.5ZM84.5 24.5C83.6716 24.5 83 25.1716 83 26C83 26.8284 83.6716 27.5 84.5 27.5V24.5ZM78.9286 27.5C79.757 27.5 80.4286 26.8284 80.4286 26C80.4286 25.1716 79.757 24.5 78.9286 24.5V27.5ZM73.3571 24.5C72.5287 24.5 71.8571 25.1716 71.8571 26C71.8571 26.8284 72.5287 27.5 73.3571 27.5V24.5ZM67.7857 27.5C68.6141 27.5 69.2857 26.8284 69.2857 26C69.2857 25.1716 68.6141 24.5 67.7857 24.5V27.5ZM143 24.5H140.214V27.5H143V24.5ZM134.643 24.5H129.071V27.5H134.643V24.5ZM123.5 24.5H117.929V27.5H123.5V24.5ZM112.357 24.5H106.786V27.5H112.357V24.5ZM101.214 24.5L95.6429 24.5V27.5L101.214 27.5V24.5ZM90.0714 24.5H84.5V27.5H90.0714V24.5ZM78.9286 24.5H73.3571V27.5H78.9286V24.5ZM67.7857 24.5H65V27.5H67.7857V24.5Z" fill="#2274A5"/>
<circle cx="143" cy="26" r="3" fill="white"/>
<path d="M1.23011 23L4.12784 5.54545H11.4062C12.7131 5.54545 13.7784 5.73011 14.6023 6.09943C15.4261 6.46875 16.0057 6.98579 16.3409 7.65057C16.6818 8.31534 16.7784 9.08523 16.6307 9.96023C16.5114 10.6193 16.267 11.2102 15.8977 11.733C15.5341 12.25 15.0795 12.6818 14.5341 13.0284C13.9886 13.3693 13.3864 13.608 12.7273 13.7443L12.6932 13.9148C13.3977 13.9432 14.0199 14.1307 14.5597 14.4773C15.1051 14.8239 15.5085 15.3097 15.7699 15.9347C16.0313 16.554 16.0909 17.2812 15.9489 18.1165C15.7955 19.054 15.4176 19.892 14.8153 20.6307C14.2188 21.3636 13.4318 21.9432 12.4545 22.3693C11.4773 22.7898 10.3466 23 9.0625 23H1.23011ZM6.02841 19.5994H8.63636C9.53977 19.5994 10.2386 19.4261 10.733 19.0795C11.233 18.7273 11.5284 18.2443 11.6193 17.6307C11.6932 17.1818 11.6534 16.7955 11.5 16.4716C11.3466 16.142 11.0909 15.8892 10.733 15.7131C10.375 15.5312 9.9233 15.4403 9.37784 15.4403H6.69318L6.02841 19.5994ZM7.16193 12.7216H9.50568C9.96023 12.7216 10.3778 12.6449 10.7585 12.4915C11.1449 12.3381 11.4631 12.1165 11.7131 11.8267C11.9688 11.5369 12.1278 11.1875 12.1903 10.7784C12.2869 10.1932 12.1534 9.73295 11.7898 9.39773C11.4261 9.0625 10.8949 8.89489 10.196 8.89489H7.79261L7.16193 12.7216ZM49.8523 27.9091C49.3523 27.9091 48.8864 27.8693 48.4545 27.7898C48.0284 27.7159 47.6648 27.6165 47.3636 27.4915L48.7955 24.4659C49.1761 24.6023 49.5256 24.679 49.8438 24.696C50.1676 24.7188 50.4574 24.6648 50.7131 24.5341C50.9744 24.4091 51.2017 24.1847 51.3949 23.8608L51.6335 23.4602L49.2386 9.90909H53.4489L54.3011 19.2585H54.4375L58.4432 9.90909H62.9858L55.6818 24.2528C55.3125 24.9688 54.8665 25.6023 54.3438 26.1534C53.821 26.7045 53.1903 27.1335 52.4517 27.4403C51.7188 27.7528 50.8523 27.9091 49.8523 27.9091Z" fill="#2274A5"/>
<path d="M64.1491 8.97159L64.7287 5.54545H79.4815L78.902 8.97159H73.6094L71.2912 23H67.1321L69.4503 8.97159H64.1491ZM77.2848 23L79.4666 9.90909H83.5149L83.1143 12.2955H83.2507C83.6314 11.4318 84.1286 10.7898 84.7422 10.3693C85.3558 9.94318 86.0206 9.73011 86.7365 9.73011C86.9297 9.73011 87.1229 9.74432 87.3161 9.77273C87.5149 9.79545 87.7024 9.82955 87.8786 9.875L87.2649 13.5057C87.0717 13.4318 86.8189 13.3778 86.5064 13.3438C86.1939 13.304 85.9098 13.2841 85.6541 13.2841C85.1598 13.2841 84.6996 13.3949 84.2734 13.6165C83.853 13.8324 83.495 14.1364 83.1996 14.5284C82.9098 14.9148 82.7195 15.3693 82.6286 15.892L81.4524 23H77.2848ZM90.5504 23.2216C89.7209 23.2216 89.005 23.0824 88.4027 22.804C87.8061 22.5199 87.3686 22.0909 87.0902 21.517C86.8175 20.9432 86.7521 20.2273 86.8942 19.3693C87.0192 18.642 87.2493 18.0312 87.5845 17.5369C87.9254 17.0369 88.343 16.6307 88.8374 16.3182C89.3374 16.0057 89.8942 15.767 90.5078 15.6023C91.1214 15.4375 91.7635 15.3267 92.4339 15.2699C93.1839 15.2017 93.7919 15.1278 94.2578 15.0483C94.7294 14.9687 95.0817 14.858 95.3146 14.7159C95.5476 14.5682 95.6896 14.3636 95.7408 14.1023V14.0597C95.8089 13.6222 95.7152 13.2841 95.4595 13.0455C95.2038 12.8068 94.8203 12.6875 94.3089 12.6875C93.7635 12.6875 93.2976 12.8068 92.9112 13.0455C92.5249 13.2841 92.255 13.6136 92.1016 14.0341L88.2834 13.8977C88.522 13.1023 88.9311 12.392 89.5107 11.767C90.0902 11.1364 90.826 10.642 91.718 10.2841C92.6158 9.92045 93.6527 9.73864 94.8288 9.73864C95.6584 9.73864 96.4084 9.83807 97.0788 10.0369C97.7493 10.2301 98.3146 10.5142 98.7749 10.8892C99.2408 11.2585 99.5732 11.7131 99.772 12.2528C99.9709 12.7926 100.013 13.4091 99.8999 14.1023L98.4084 23H94.4879L94.7947 21.1761H94.6925C94.3857 21.6193 94.0249 21.9943 93.6101 22.3011C93.201 22.608 92.7408 22.8381 92.2294 22.9915C91.718 23.1449 91.1584 23.2216 90.5504 23.2216ZM92.3061 20.4943C92.7436 20.4943 93.1584 20.4034 93.5504 20.2216C93.9425 20.0398 94.272 19.7898 94.5391 19.4716C94.8118 19.1477 94.9851 18.7727 95.0589 18.3466L95.255 17.1023C95.1357 17.1648 94.9851 17.2216 94.8033 17.2727C94.6214 17.3239 94.4283 17.3722 94.2237 17.4176C94.0192 17.4574 93.8089 17.4972 93.593 17.5369C93.3828 17.571 93.1811 17.6023 92.9879 17.6307C92.5788 17.6932 92.2237 17.7898 91.9226 17.9205C91.6214 18.0511 91.38 18.2216 91.1982 18.4318C91.022 18.6364 90.9141 18.8807 90.8743 19.1648C90.8061 19.5909 90.9055 19.9205 91.1726 20.1534C91.4396 20.3807 91.8175 20.4943 92.3061 20.4943ZM107.033 23.2472C105.653 23.2472 104.513 22.9631 103.616 22.3949C102.724 21.8267 102.099 21.0369 101.741 20.0256C101.383 19.0085 101.317 17.8324 101.545 16.4972C101.761 15.1562 102.218 13.9801 102.917 12.9688C103.616 11.9517 104.508 11.1591 105.593 10.5909C106.678 10.0227 107.906 9.73864 109.275 9.73864C110.485 9.73864 111.502 9.95739 112.326 10.3949C113.156 10.8324 113.755 11.4517 114.124 12.2528C114.499 13.0483 114.61 13.983 114.457 15.0568H110.562C110.596 14.392 110.46 13.8693 110.153 13.4886C109.846 13.1023 109.4 12.9091 108.815 12.9091C108.32 12.9091 107.866 13.0455 107.451 13.3182C107.042 13.5852 106.692 13.983 106.403 14.5114C106.119 15.0341 105.914 15.6818 105.789 16.4545C105.664 17.2273 105.656 17.8807 105.763 18.4148C105.877 18.9432 106.09 19.3437 106.403 19.6165C106.721 19.8835 107.124 20.017 107.613 20.017C107.999 20.017 108.357 19.9347 108.687 19.7699C109.016 19.6051 109.303 19.3636 109.548 19.0455C109.792 18.7216 109.982 18.3295 110.119 17.8693H114.005C113.783 18.9545 113.354 19.9006 112.718 20.7074C112.087 21.5085 111.289 22.1335 110.323 22.5824C109.357 23.0256 108.261 23.2472 107.033 23.2472ZM119.598 19.5653L120.442 14.5966H121.013L125.496 9.90909H130.217L123.638 16.625H122.538L119.598 19.5653ZM115.277 23L118.175 5.54545H122.342L119.445 23H115.277ZM123.408 23L120.885 17.5625L124.132 14.6051L128.223 23H123.408ZM129.527 23L131.709 9.90909H135.757L135.357 12.2955H135.493C135.874 11.4318 136.371 10.7898 136.984 10.3693C137.598 9.94318 138.263 9.73011 138.979 9.73011C139.172 9.73011 139.365 9.74432 139.558 9.77273C139.757 9.79545 139.945 9.82955 140.121 9.875L139.507 13.5057C139.314 13.4318 139.061 13.3778 138.749 13.3438C138.436 13.304 138.152 13.2841 137.896 13.2841C137.402 13.2841 136.942 13.3949 136.516 13.6165C136.095 13.8324 135.737 14.1364 135.442 14.5284C135.152 14.9148 134.962 15.3693 134.871 15.892L133.695 23H129.527Z" fill="black"/>
<path d="M37.9943 23.1875C37.0284 23.1875 36.1903 22.9375 35.4801 22.4375C34.7699 21.9375 34.2614 21.1875 33.9545 20.1875C33.6534 19.1875 33.625 17.946 33.8693 16.4631C34.125 14.9233 34.5795 13.6562 35.233 12.6619C35.8864 11.6676 36.6477 10.9318 37.517 10.4545C38.392 9.97727 39.2841 9.73864 40.1932 9.73864C40.8807 9.73864 41.4489 9.85795 41.8977 10.0966C42.3523 10.3295 42.7074 10.6307 42.9631 11C43.2188 11.3693 43.3949 11.7528 43.4915 12.1506H43.5852L44.6847 5.54545H48.8523L45.9545 23H41.8295L42.179 20.8778H42.0511C41.8068 21.2812 41.4943 21.6591 41.1136 22.0114C40.733 22.3636 40.2812 22.6477 39.7585 22.8636C39.2415 23.0795 38.6534 23.1875 37.9943 23.1875ZM39.9631 19.9403C40.4688 19.9403 40.9261 19.7983 41.3352 19.5142C41.7443 19.2244 42.0881 18.8182 42.3665 18.2955C42.6506 17.7727 42.8494 17.1591 42.9631 16.4545C43.0824 15.7386 43.0881 15.1222 42.9801 14.6051C42.8722 14.0881 42.6591 13.6903 42.3409 13.4119C42.0284 13.1335 41.6165 12.9943 41.1051 12.9943C40.5938 12.9943 40.1364 13.1364 39.733 13.4205C39.3295 13.7045 38.9943 14.1051 38.7273 14.6222C38.4602 15.1392 38.267 15.75 38.1477 16.4545C38.0341 17.1591 38.0227 17.7727 38.1136 18.2955C38.2102 18.8182 38.4119 19.2244 38.7188 19.5142C39.0312 19.7983 39.446 19.9403 39.9631 19.9403Z" fill="#2274A5"/>
<path d="M24.3324 23.2472C22.9517 23.2472 21.8125 22.9631 20.9148 22.3949C20.0227 21.8267 19.3949 21.0341 19.0312 20.017C18.6676 19 18.5966 17.8182 18.8182 16.4716C19.0398 15.1307 19.4972 13.9545 20.1903 12.9432C20.8835 11.9318 21.7699 11.1449 22.8494 10.5824C23.929 10.0199 25.1534 9.73864 26.5227 9.73864C27.8977 9.73864 29.0313 10.0227 29.9233 10.5909C30.821 11.1591 31.4517 11.9517 31.8153 12.9688C32.1847 13.9858 32.2585 15.1705 32.0369 16.5227C31.8153 17.8636 31.3551 19.0398 30.6562 20.0511C29.9574 21.0568 29.071 21.8409 27.9972 22.4034C26.9233 22.9659 25.7017 23.2472 24.3324 23.2472ZM24.8011 20.1023C25.3125 20.1023 25.7699 19.9489 26.1733 19.642C26.5824 19.3352 26.9261 18.9062 27.2045 18.3551C27.483 17.804 27.6818 17.1648 27.8011 16.4375C27.9205 15.7216 27.9318 15.0938 27.8352 14.554C27.7443 14.0085 27.5511 13.5852 27.2557 13.2841C26.9602 12.9773 26.5597 12.8239 26.054 12.8239C25.5426 12.8239 25.0824 12.9801 24.6733 13.2926C24.2642 13.5994 23.9205 14.0284 23.642 14.5795C23.3693 15.125 23.1733 15.7642 23.054 16.4972C22.9347 17.2131 22.9205 17.8409 23.0114 18.3807C23.1023 18.9205 23.2983 19.3438 23.5994 19.6506C23.9006 19.9517 24.3011 20.1023 24.8011 20.1023Z" fill="#2274A5"/>
<path d="M73.5708 25.1425C74.2182 25.5309 74.2182 26.4691 73.5708 26.8575L61.5145 34.0913C60.848 34.4912 60 34.0111 60 33.2338L60 18.7662C60 17.9889 60.848 17.5088 61.5145 17.9087L73.5708 25.1425Z" fill="black"/>
</svg>
