<svg width="142" height="39" viewBox="0 0 142 39" fill="none" xmlns="http://www.w3.org/2000/svg">
<path d="M2.00001 28.5C1.17158 28.5 0.50001 29.1716 0.50001 30C0.50001 30.8284 1.17158 31.5 2.00001 31.5V28.5ZM55.0417 28.5C54.2132 28.5 53.5417 29.1716 53.5417 30C53.5417 30.8284 54.2132 31.5 55.0417 31.5V28.5ZM49.4583 31.5C50.2868 31.5 50.9583 30.8284 50.9583 30C50.9583 29.1716 50.2868 28.5 49.4583 28.5V31.5ZM43.875 28.5C43.0466 28.5 42.375 29.1716 42.375 30C42.375 30.8284 43.0466 31.5 43.875 31.5V28.5ZM38.2917 31.5C39.1201 31.5 39.7917 30.8284 39.7917 30C39.7917 29.1716 39.1201 28.5 38.2917 28.5V31.5ZM32.7083 28.5C31.8799 28.5 31.2083 29.1716 31.2083 30C31.2083 30.8284 31.8799 31.5 32.7083 31.5V28.5ZM27.125 31.5C27.9534 31.5 28.625 30.8284 28.625 30C28.625 29.1716 27.9534 28.5 27.125 28.5V31.5ZM21.5417 28.5C20.7133 28.5 20.0417 29.1716 20.0417 30C20.0417 30.8284 20.7133 31.5 21.5417 31.5V28.5ZM15.9583 31.5C16.7868 31.5 17.4583 30.8284 17.4583 30C17.4583 29.1716 16.7868 28.5 15.9583 28.5V31.5ZM10.375 28.5C9.54659 28.5 8.87502 29.1716 8.87502 30C8.87502 30.8284 9.54659 31.5 10.375 31.5V28.5ZM4.79168 31.5C5.62011 31.5 6.29168 30.8284 6.29168 30C6.29168 29.1716 5.62011 28.5 4.79168 28.5V31.5ZM57.8333 28.5H55.0417V31.5H57.8333V28.5ZM49.4583 28.5H43.875V31.5L49.4583 31.5V28.5ZM38.2917 28.5H32.7083V31.5H38.2917V28.5ZM27.125 28.5H21.5417V31.5H27.125V28.5ZM15.9583 28.5H10.375V31.5H15.9583V28.5ZM4.79168 28.5H2.00001V31.5H4.79168V28.5Z" fill="black"/>
<path d="M141.208 30C141.208 25.5817 137.627 22 133.208 22C128.79 22 125.208 25.5817 125.208 30C125.208 34.4183 128.79 38 133.208 38C137.627 38 141.208 34.4183 141.208 30ZM60.625 28.5C59.7966 28.5 59.125 29.1716 59.125 30C59.125 30.8284 59.7966 31.5 60.625 31.5V28.5ZM130.184 28.5C129.356 28.5 128.684 29.1716 128.684 30C128.684 30.8284 129.356 31.5 130.184 31.5V28.5ZM124.135 31.5C124.964 31.5 125.635 30.8284 125.635 30C125.635 29.1716 124.964 28.5 124.135 28.5V31.5ZM118.087 28.5C117.258 28.5 116.587 29.1716 116.587 30C116.587 30.8284 117.258 31.5 118.087 31.5V28.5ZM112.038 31.5C112.867 31.5 113.538 30.8284 113.538 30C113.538 29.1716 112.867 28.5 112.038 28.5V31.5ZM105.99 28.5C105.161 28.5 104.49 29.1716 104.49 30C104.49 30.8284 105.161 31.5 105.99 31.5V28.5ZM99.941 31.5C100.769 31.5 101.441 30.8284 101.441 30C101.441 29.1716 100.769 28.5 99.941 28.5V31.5ZM93.8924 28.5C93.0639 28.5 92.3924 29.1716 92.3924 30C92.3924 30.8284 93.0639 31.5 93.8924 31.5V28.5ZM87.8437 31.5C88.6722 31.5 89.3437 30.8284 89.3437 30C89.3437 29.1716 88.6722 28.5 87.8437 28.5V31.5ZM81.7951 28.5C80.9667 28.5 80.2951 29.1716 80.2951 30C80.2951 30.8284 80.9667 31.5 81.7951 31.5V28.5ZM75.7465 31.5C76.575 31.5 77.2465 30.8284 77.2465 30C77.2465 29.1716 76.575 28.5 75.7465 28.5V31.5ZM69.6979 28.5C68.8695 28.5 68.1979 29.1716 68.1979 30C68.1979 30.8284 68.8695 31.5 69.6979 31.5V28.5ZM63.6493 31.5C64.4777 31.5 65.1493 30.8284 65.1493 30C65.1493 29.1716 64.4777 28.5 63.6493 28.5V31.5ZM133.208 28.5H130.184V31.5H133.208V28.5ZM124.135 28.5L118.087 28.5V31.5L124.135 31.5V28.5ZM112.038 28.5H105.99V31.5H112.038V28.5ZM99.941 28.5H93.8924V31.5H99.941V28.5ZM87.8437 28.5H81.7951V31.5H87.8437V28.5ZM75.7465 28.5H69.6979V31.5H75.7465V28.5ZM63.6493 28.5H60.625V31.5H63.6493V28.5Z" fill="#2274A5"/>
<ellipse cx="133.208" cy="30" rx="2.79167" ry="3" fill="white"/>
<path d="M69.5576 29.1596C70.1684 29.5534 70.1685 30.4466 69.5576 30.8404L58.4447 38.0058C57.7792 38.4349 56.9028 37.9572 56.9028 37.1654L56.9028 22.8346C56.9028 22.0428 57.7792 21.5651 58.4447 21.9942L69.5576 29.1596Z" fill="black"/>
<path d="M3.23011 23L6.12784 5.54545H13.4062C14.7131 5.54545 15.7784 5.73011 16.6023 6.09943C17.4261 6.46875 18.0057 6.98579 18.3409 7.65057C18.6818 8.31534 18.7784 9.08523 18.6307 9.96023C18.5114 10.6193 18.267 11.2102 17.8977 11.733C17.5341 12.25 17.0795 12.6818 16.5341 13.0284C15.9886 13.3693 15.3864 13.608 14.7273 13.7443L14.6932 13.9148C15.3977 13.9432 16.0199 14.1307 16.5597 14.4773C17.1051 14.8239 17.5085 15.3097 17.7699 15.9347C18.0313 16.554 18.0909 17.2812 17.9489 18.1165C17.7955 19.054 17.4176 19.892 16.8153 20.6307C16.2188 21.3636 15.4318 21.9432 14.4545 22.3693C13.4773 22.7898 12.3466 23 11.0625 23H3.23011ZM8.02841 19.5994H10.6364C11.5398 19.5994 12.2386 19.4261 12.733 19.0795C13.233 18.7273 13.5284 18.2443 13.6193 17.6307C13.6932 17.1818 13.6534 16.7955 13.5 16.4716C13.3466 16.142 13.0909 15.8892 12.733 15.7131C12.375 15.5312 11.9233 15.4403 11.3778 15.4403H8.69318L8.02841 19.5994ZM9.16193 12.7216H11.5057C11.9602 12.7216 12.3778 12.6449 12.7585 12.4915C13.1449 12.3381 13.4631 12.1165 13.7131 11.8267C13.9688 11.5369 14.1278 11.1875 14.1903 10.7784C14.2869 10.1932 14.1534 9.73295 13.7898 9.39773C13.4261 9.0625 12.8949 8.89489 12.196 8.89489H9.79261L9.16193 12.7216ZM24.1899 23.2472C22.8092 23.2472 21.67 22.9631 20.7723 22.3949C19.8802 21.8267 19.2524 21.0341 18.8888 20.017C18.5251 19 18.4541 17.8182 18.6757 16.4716C18.8973 15.1307 19.3547 13.9545 20.0478 12.9432C20.741 11.9318 21.6274 11.1449 22.7069 10.5824C23.7865 10.0199 25.0109 9.73864 26.3802 9.73864C27.7552 9.73864 28.8888 10.0227 29.7808 10.5909C30.6785 11.1591 31.3092 11.9517 31.6728 12.9688C32.0422 13.9858 32.116 15.1705 31.8944 16.5227C31.6728 17.8636 31.2126 19.0398 30.5138 20.0511C29.8149 21.0568 28.9285 21.8409 27.8547 22.4034C26.7808 22.9659 25.5592 23.2472 24.1899 23.2472ZM24.6586 20.1023C25.17 20.1023 25.6274 19.9489 26.0308 19.642C26.4399 19.3352 26.7836 18.9062 27.062 18.3551C27.3405 17.804 27.5393 17.1648 27.6586 16.4375C27.778 15.7216 27.7893 15.0938 27.6927 14.554C27.6018 14.0085 27.4086 13.5852 27.1132 13.2841C26.8177 12.9773 26.4172 12.8239 25.9115 12.8239C25.4001 12.8239 24.9399 12.9801 24.5308 13.2926C24.1217 13.5994 23.778 14.0284 23.4995 14.5795C23.2268 15.125 23.0308 15.7642 22.9115 16.4972C22.7922 17.2131 22.778 17.8409 22.8689 18.3807C22.9598 18.9205 23.1558 19.3438 23.4569 19.6506C23.7581 19.9517 24.1586 20.1023 24.6586 20.1023ZM36.6312 23.1875C35.6653 23.1875 34.8272 22.9375 34.117 22.4375C33.4068 21.9375 32.8982 21.1875 32.5914 20.1875C32.2903 19.1875 32.2619 17.946 32.5062 16.4631C32.7619 14.9233 33.2164 13.6562 33.8698 12.6619C34.5232 11.6676 35.2846 10.9318 36.1539 10.4545C37.0289 9.97727 37.921 9.73864 38.8301 9.73864C39.5176 9.73864 40.0857 9.85795 40.5346 10.0966C40.9891 10.3295 41.3443 10.6307 41.5999 11C41.8556 11.3693 42.0318 11.7528 42.1284 12.1506H42.2221L43.3215 5.54545H47.4891L44.5914 23H40.4664L40.8159 20.8778H40.688C40.4437 21.2812 40.1312 21.6591 39.7505 22.0114C39.3698 22.3636 38.9181 22.6477 38.3954 22.8636C37.8784 23.0795 37.2903 23.1875 36.6312 23.1875ZM38.5999 19.9403C39.1056 19.9403 39.563 19.7983 39.9721 19.5142C40.3812 19.2244 40.7249 18.8182 41.0034 18.2955C41.2874 17.7727 41.4863 17.1591 41.5999 16.4545C41.7193 15.7386 41.7249 15.1222 41.617 14.6051C41.509 14.0881 41.296 13.6903 40.9778 13.4119C40.6653 13.1335 40.2534 12.9943 39.742 12.9943C39.2306 12.9943 38.7732 13.1364 38.3698 13.4205C37.9664 13.7045 37.6312 14.1051 37.3641 14.6222C37.0971 15.1392 36.9039 15.75 36.7846 16.4545C36.671 17.1591 36.6596 17.7727 36.7505 18.2955C36.8471 18.8182 37.0488 19.2244 37.3556 19.5142C37.6681 19.7983 38.0829 19.9403 38.5999 19.9403ZM47.9091 27.9091C47.4091 27.9091 46.9432 27.8693 46.5114 27.7898C46.0853 27.7159 45.7216 27.6165 45.4205 27.4915L46.8523 24.4659C47.233 24.6023 47.5824 24.679 47.9006 24.696C48.2245 24.7188 48.5143 24.6648 48.7699 24.5341C49.0313 24.4091 49.2586 24.1847 49.4518 23.8608L49.6904 23.4602L47.2955 9.90909H51.5057L52.358 19.2585H52.4944L56.5001 9.90909H61.0427L53.7387 24.2528C53.3694 24.9688 52.9234 25.6023 52.4006 26.1534C51.8779 26.7045 51.2472 27.1335 50.5086 27.4403C49.7756 27.7528 48.9091 27.9091 47.9091 27.9091Z" fill="#2274A5"/>
<path d="M61.126 8.97159L61.7056 5.54545H76.4584L75.8789 8.97159H70.5863L68.2681 23H64.109L66.4272 8.97159H61.126ZM73.1817 23L75.3635 9.90909H79.4118L79.0112 12.2955H79.1476C79.5283 11.4318 80.0254 10.7898 80.6391 10.3693C81.2527 9.94318 81.9175 9.73011 82.6334 9.73011C82.8266 9.73011 83.0197 9.74432 83.2129 9.77273C83.4118 9.79545 83.5993 9.82955 83.7754 9.875L83.1618 13.5057C82.9686 13.4318 82.7158 13.3778 82.4033 13.3438C82.0908 13.304 81.8067 13.2841 81.551 13.2841C81.0567 13.2841 80.5964 13.3949 80.1703 13.6165C79.7499 13.8324 79.3919 14.1364 79.0964 14.5284C78.8067 14.9148 78.6163 15.3693 78.5254 15.892L77.3493 23H73.1817ZM85.3673 23.2216C84.5378 23.2216 83.8218 23.0824 83.2196 22.804C82.623 22.5199 82.1855 22.0909 81.9071 21.517C81.6343 20.9432 81.569 20.2273 81.711 19.3693C81.836 18.642 82.0662 18.0312 82.4014 17.5369C82.7423 17.0369 83.1599 16.6307 83.6542 16.3182C84.1542 16.0057 84.711 15.767 85.3247 15.6023C85.9383 15.4375 86.5804 15.3267 87.2508 15.2699C88.0008 15.2017 88.6088 15.1278 89.0747 15.0483C89.5463 14.9687 89.8985 14.858 90.1315 14.7159C90.3645 14.5682 90.5065 14.3636 90.5576 14.1023V14.0597C90.6258 13.6222 90.5321 13.2841 90.2764 13.0455C90.0207 12.8068 89.6372 12.6875 89.1258 12.6875C88.5804 12.6875 88.1145 12.8068 87.7281 13.0455C87.3417 13.2841 87.0718 13.6136 86.9184 14.0341L83.1003 13.8977C83.3389 13.1023 83.748 12.392 84.3275 11.767C84.9071 11.1364 85.6429 10.642 86.5349 10.2841C87.4326 9.92045 88.4696 9.73864 89.6457 9.73864C90.4753 9.73864 91.2253 9.83807 91.8957 10.0369C92.5662 10.2301 93.1315 10.5142 93.5917 10.8892C94.0576 11.2585 94.39 11.7131 94.5889 12.2528C94.7878 12.7926 94.8304 13.4091 94.7167 14.1023L93.2253 23H89.3048L89.6116 21.1761H89.5093C89.2025 21.6193 88.8417 21.9943 88.427 22.3011C88.0179 22.608 87.5576 22.8381 87.0463 22.9915C86.5349 23.1449 85.9753 23.2216 85.3673 23.2216ZM87.123 20.4943C87.5605 20.4943 87.9753 20.4034 88.3673 20.2216C88.7593 20.0398 89.0889 19.7898 89.3559 19.4716C89.6287 19.1477 89.802 18.7727 89.8758 18.3466L90.0718 17.1023C89.9525 17.1648 89.802 17.2216 89.6201 17.2727C89.4383 17.3239 89.2451 17.3722 89.0406 17.4176C88.836 17.4574 88.6258 17.4972 88.4099 17.5369C88.1997 17.571 87.998 17.6023 87.8048 17.6307C87.3957 17.6932 87.0406 17.7898 86.7395 17.9205C86.4383 18.0511 86.1968 18.2216 86.015 18.4318C85.8389 18.6364 85.7309 18.8807 85.6912 19.1648C85.623 19.5909 85.7224 19.9205 85.9895 20.1534C86.2565 20.3807 86.6343 20.4943 87.123 20.4943ZM100.77 23.2472C99.3896 23.2472 98.2504 22.9631 97.3526 22.3949C96.4606 21.8267 95.8356 21.0369 95.4776 20.0256C95.1197 19.0085 95.0543 17.8324 95.2816 16.4972C95.4975 15.1562 95.9549 13.9801 96.6538 12.9688C97.3526 11.9517 98.2447 11.1591 99.3299 10.5909C100.415 10.0227 101.642 9.73864 103.012 9.73864C104.222 9.73864 105.239 9.95739 106.063 10.3949C106.892 10.8324 107.492 11.4517 107.861 12.2528C108.236 13.0483 108.347 13.983 108.194 15.0568H104.299C104.333 14.392 104.196 13.8693 103.89 13.4886C103.583 13.1023 103.137 12.9091 102.552 12.9091C102.057 12.9091 101.603 13.0455 101.188 13.3182C100.779 13.5852 100.429 13.983 100.14 14.5114C99.8555 15.0341 99.6509 15.6818 99.5259 16.4545C99.4009 17.2273 99.3924 17.8807 99.5004 18.4148C99.614 18.9432 99.8271 19.3437 100.14 19.6165C100.458 19.8835 100.861 20.017 101.35 20.017C101.736 20.017 102.094 19.9347 102.424 19.7699C102.753 19.6051 103.04 19.3636 103.284 19.0455C103.529 18.7216 103.719 18.3295 103.855 17.8693H107.742C107.52 18.9545 107.091 19.9006 106.455 20.7074C105.824 21.5085 105.026 22.1335 104.06 22.5824C103.094 23.0256 101.998 23.2472 100.77 23.2472ZM112.255 19.5653L113.099 14.5966H113.67L118.153 9.90909H122.874L116.295 16.625H115.195L112.255 19.5653ZM107.934 23L110.832 5.54545H114.999L112.101 23H107.934ZM116.065 23L113.542 17.5625L116.789 14.6051L120.88 23H116.065ZM121.104 23L123.286 9.90909H127.334L126.933 12.2955H127.07C127.45 11.4318 127.948 10.7898 128.561 10.3693C129.175 9.94318 129.84 9.73011 130.556 9.73011C130.749 9.73011 130.942 9.74432 131.135 9.77273C131.334 9.79545 131.521 9.82955 131.698 9.875L131.084 13.5057C130.891 13.4318 130.638 13.3778 130.325 13.3438C130.013 13.304 129.729 13.2841 129.473 13.2841C128.979 13.2841 128.519 13.3949 128.092 13.6165C127.672 13.8324 127.314 14.1364 127.019 14.5284C126.729 14.9148 126.539 15.3693 126.448 15.892L125.271 23H121.104Z" fill="black"/>
</svg>
