<svg width="139" height="23" viewBox="0 0 139 23" fill="none" xmlns="http://www.w3.org/2000/svg">
<path d="M0.230114 18L3.12784 0.545454H10.4062C11.7131 0.545454 12.7784 0.730113 13.6023 1.09943C14.4261 1.46875 15.0057 1.98579 15.3409 2.65057C15.6818 3.31534 15.7784 4.08523 15.6307 4.96023C15.5114 5.61932 15.267 6.21023 14.8977 6.73295C14.5341 7.25 14.0795 7.68182 13.5341 8.02841C12.9886 8.36932 12.3864 8.60795 11.7273 8.74432L11.6932 8.91477C12.3977 8.94318 13.0199 9.13068 13.5597 9.47727C14.1051 9.82386 14.5085 10.3097 14.7699 10.9347C15.0313 11.554 15.0909 12.2812 14.9489 13.1165C14.7955 14.054 14.4176 14.892 13.8153 15.6307C13.2188 16.3636 12.4318 16.9432 11.4545 17.3693C10.4773 17.7898 9.34659 18 8.0625 18H0.230114ZM5.02841 14.5994H7.63636C8.53977 14.5994 9.23864 14.4261 9.73295 14.0795C10.233 13.7273 10.5284 13.2443 10.6193 12.6307C10.6932 12.1818 10.6534 11.7955 10.5 11.4716C10.3466 11.142 10.0909 10.8892 9.73295 10.7131C9.375 10.5312 8.9233 10.4403 8.37784 10.4403H5.69318L5.02841 14.5994ZM6.16193 7.72159H8.50568C8.96023 7.72159 9.37784 7.64489 9.75852 7.49148C10.1449 7.33807 10.4631 7.11648 10.7131 6.8267C10.9688 6.53693 11.1278 6.1875 11.1903 5.77841C11.2869 5.19318 11.1534 4.73295 10.7898 4.39773C10.4261 4.0625 9.89489 3.89489 9.19602 3.89489H6.79261L6.16193 7.72159ZM22.2699 18.2472C20.8892 18.2472 19.75 17.9631 18.8523 17.3949C17.9602 16.8267 17.3324 16.0341 16.9688 15.017C16.6051 14 16.5341 12.8182 16.7557 11.4716C16.9773 10.1307 17.4347 8.95455 18.1278 7.94318C18.821 6.93182 19.7074 6.14489 20.7869 5.58239C21.8665 5.01989 23.0909 4.73864 24.4602 4.73864C25.8352 4.73864 26.9688 5.02273 27.8608 5.59091C28.7585 6.15909 29.3892 6.9517 29.7528 7.96875C30.1222 8.9858 30.196 10.1705 29.9744 11.5227C29.7528 12.8636 29.2926 14.0398 28.5938 15.0511C27.8949 16.0568 27.0085 16.8409 25.9347 17.4034C24.8608 17.9659 23.6392 18.2472 22.2699 18.2472ZM22.7386 15.1023C23.25 15.1023 23.7074 14.9489 24.1108 14.642C24.5199 14.3352 24.8636 13.9062 25.142 13.3551C25.4205 12.804 25.6193 12.1648 25.7386 11.4375C25.858 10.7216 25.8693 10.0938 25.7727 9.55398C25.6818 9.00852 25.4886 8.58523 25.1932 8.28409C24.8977 7.97727 24.4972 7.82386 23.9915 7.82386C23.4801 7.82386 23.0199 7.98011 22.6108 8.29261C22.2017 8.59943 21.858 9.02841 21.5795 9.57955C21.3068 10.125 21.1108 10.7642 20.9915 11.4972C20.8722 12.2131 20.858 12.8409 20.9489 13.3807C21.0398 13.9205 21.2358 14.3438 21.5369 14.6506C21.8381 14.9517 22.2386 15.1023 22.7386 15.1023ZM35.7912 18.1875C34.8253 18.1875 33.9872 17.9375 33.277 17.4375C32.5668 16.9375 32.0582 16.1875 31.7514 15.1875C31.4503 14.1875 31.4219 12.946 31.6662 11.4631C31.9219 9.9233 32.3764 8.65625 33.0298 7.66193C33.6832 6.66761 34.4446 5.93182 35.3139 5.45454C36.1889 4.97727 37.081 4.73864 37.9901 4.73864C38.6776 4.73864 39.2457 4.85795 39.6946 5.09659C40.1491 5.32955 40.5043 5.63068 40.7599 6C41.0156 6.36932 41.1918 6.75284 41.2884 7.15057H41.3821L42.4815 0.545454H46.6491L43.7514 18H39.6264L39.9759 15.8778H39.848C39.6037 16.2812 39.2912 16.6591 38.9105 17.0114C38.5298 17.3636 38.0781 17.6477 37.5554 17.8636C37.0384 18.0795 36.4503 18.1875 35.7912 18.1875ZM37.7599 14.9403C38.2656 14.9403 38.723 14.7983 39.1321 14.5142C39.5412 14.2244 39.8849 13.8182 40.1634 13.2955C40.4474 12.7727 40.6463 12.1591 40.7599 11.4545C40.8793 10.7386 40.8849 10.1222 40.777 9.60511C40.669 9.08807 40.456 8.69034 40.1378 8.41193C39.8253 8.13352 39.4134 7.99432 38.902 7.99432C38.3906 7.99432 37.9332 8.13636 37.5298 8.42045C37.1264 8.70455 36.7912 9.10511 36.5241 9.62216C36.2571 10.1392 36.0639 10.75 35.9446 11.4545C35.831 12.1591 35.8196 12.7727 35.9105 13.2955C36.0071 13.8182 36.2088 14.2244 36.5156 14.5142C36.8281 14.7983 37.2429 14.9403 37.7599 14.9403ZM48.1491 22.9091C47.6491 22.9091 47.1832 22.8693 46.7514 22.7898C46.3253 22.7159 45.9616 22.6165 45.6605 22.4915L47.0923 19.4659C47.473 19.6023 47.8224 19.679 48.1406 19.696C48.4645 19.7188 48.7543 19.6648 49.0099 19.5341C49.2713 19.4091 49.4986 19.1847 49.6918 18.8608L49.9304 18.4602L47.5355 4.90909H51.7457L52.598 14.2585H52.7344L56.7401 4.90909H61.2827L53.9787 19.2528C53.6094 19.9688 53.1634 20.6023 52.6406 21.1534C52.1179 21.7045 51.4872 22.1335 50.7486 22.4403C50.0156 22.7528 49.1491 22.9091 48.1491 22.9091Z" fill="#2274A5"/>
<path d="M62.446 3.97159L63.0256 0.545454H77.7784L77.1989 3.97159H71.9062L69.5881 18H65.429L67.7472 3.97159H62.446ZM75.5817 18L77.7635 4.90909H81.8118L81.4112 7.29545H81.5476C81.9283 6.43182 82.4254 5.78977 83.0391 5.36932C83.6527 4.94318 84.3175 4.73011 85.0334 4.73011C85.2266 4.73011 85.4197 4.74432 85.6129 4.77273C85.8118 4.79545 85.9993 4.82955 86.1754 4.875L85.5618 8.50568C85.3686 8.43182 85.1158 8.37784 84.8033 8.34375C84.4908 8.30398 84.2067 8.28409 83.951 8.28409C83.4567 8.28409 82.9964 8.39489 82.5703 8.61648C82.1499 8.83239 81.7919 9.13636 81.4964 9.52841C81.2067 9.91477 81.0163 10.3693 80.9254 10.892L79.7493 18H75.5817ZM88.8473 18.2216C88.0178 18.2216 87.3018 18.0824 86.6996 17.804C86.103 17.5199 85.6655 17.0909 85.3871 16.517C85.1143 15.9432 85.049 15.2273 85.1911 14.3693C85.3161 13.642 85.5462 13.0312 85.8814 12.5369C86.2223 12.0369 86.6399 11.6307 87.1342 11.3182C87.6342 11.0057 88.1911 10.767 88.8047 10.6023C89.4183 10.4375 90.0604 10.3267 90.7308 10.2699C91.4808 10.2017 92.0888 10.1278 92.5547 10.0483C93.0263 9.96875 93.3786 9.85795 93.6115 9.71591C93.8445 9.56818 93.9865 9.36364 94.0376 9.10227V9.05966C94.1058 8.62216 94.0121 8.28409 93.7564 8.04545C93.5007 7.80682 93.1172 7.6875 92.6058 7.6875C92.0604 7.6875 91.5945 7.80682 91.2081 8.04545C90.8217 8.28409 90.5518 8.61364 90.3984 9.03409L86.5803 8.89773C86.8189 8.10227 87.228 7.39205 87.8075 6.76705C88.3871 6.13636 89.1229 5.64205 90.0149 5.28409C90.9126 4.92045 91.9496 4.73864 93.1257 4.73864C93.9553 4.73864 94.7053 4.83807 95.3757 5.03693C96.0462 5.23011 96.6115 5.5142 97.0717 5.8892C97.5376 6.25852 97.87 6.71307 98.0689 7.25284C98.2678 7.79261 98.3104 8.40909 98.1967 9.10227L96.7053 18H92.7848L93.0916 16.1761H92.9893C92.6825 16.6193 92.3217 16.9943 91.907 17.3011C91.4979 17.608 91.0376 17.8381 90.5263 17.9915C90.0149 18.1449 89.4553 18.2216 88.8473 18.2216ZM90.603 15.4943C91.0405 15.4943 91.4553 15.4034 91.8473 15.2216C92.2393 15.0398 92.5689 14.7898 92.8359 14.4716C93.1087 14.1477 93.282 13.7727 93.3558 13.3466L93.5518 12.1023C93.4325 12.1648 93.282 12.2216 93.1001 12.2727C92.9183 12.3239 92.7251 12.3722 92.5206 12.4176C92.3161 12.4574 92.1058 12.4972 91.8899 12.5369C91.6797 12.571 91.478 12.6023 91.2848 12.6307C90.8757 12.6932 90.5206 12.7898 90.2195 12.9205C89.9183 13.0511 89.6768 13.2216 89.495 13.4318C89.3189 13.6364 89.2109 13.8807 89.1712 14.1648C89.103 14.5909 89.2024 14.9205 89.4695 15.1534C89.7365 15.3807 90.1143 15.4943 90.603 15.4943ZM105.33 18.2472C103.95 18.2472 102.81 17.9631 101.913 17.3949C101.021 16.8267 100.396 16.0369 100.038 15.0256C99.6797 14.0085 99.6143 12.8324 99.8416 11.4972C100.058 10.1562 100.515 8.98011 101.214 7.96875C101.913 6.9517 102.805 6.15909 103.89 5.59091C104.975 5.02273 106.202 4.73864 107.572 4.73864C108.782 4.73864 109.799 4.95739 110.623 5.39489C111.452 5.83239 112.052 6.4517 112.421 7.25284C112.796 8.0483 112.907 8.98295 112.754 10.0568H108.859C108.893 9.39205 108.756 8.86932 108.45 8.48864C108.143 8.10227 107.697 7.90909 107.112 7.90909C106.617 7.90909 106.163 8.04545 105.748 8.31818C105.339 8.58523 104.989 8.98295 104.7 9.51136C104.415 10.0341 104.211 10.6818 104.086 11.4545C103.961 12.2273 103.952 12.8807 104.06 13.4148C104.174 13.9432 104.387 14.3437 104.7 14.6165C105.018 14.8835 105.421 15.017 105.91 15.017C106.296 15.017 106.654 14.9347 106.984 14.7699C107.313 14.6051 107.6 14.3636 107.844 14.0455C108.089 13.7216 108.279 13.3295 108.415 12.8693H112.302C112.08 13.9545 111.651 14.9006 111.015 15.7074C110.384 16.5085 109.586 17.1335 108.62 17.5824C107.654 18.0256 106.558 18.2472 105.33 18.2472ZM117.895 14.5653L118.739 9.59659H119.31L123.793 4.90909H128.514L121.935 11.625H120.835L117.895 14.5653ZM113.574 18L116.472 0.545454H120.639L117.741 18H113.574ZM121.705 18L119.182 12.5625L122.429 9.60511L126.52 18H121.705ZM127.824 18L130.006 4.90909H134.054L133.653 7.29545H133.79C134.17 6.43182 134.668 5.78977 135.281 5.36932C135.895 4.94318 136.56 4.73011 137.276 4.73011C137.469 4.73011 137.662 4.74432 137.855 4.77273C138.054 4.79545 138.241 4.82955 138.418 4.875L137.804 8.50568C137.611 8.43182 137.358 8.37784 137.045 8.34375C136.733 8.30398 136.449 8.28409 136.193 8.28409C135.699 8.28409 135.239 8.39489 134.812 8.61648C134.392 8.83239 134.034 9.13636 133.739 9.52841C133.449 9.91477 133.259 10.3693 133.168 10.892L131.991 18H127.824Z" fill="black"/>
</svg>
