<svg width="25" height="25" viewBox="0 0 25 25" fill="none" xmlns="http://www.w3.org/2000/svg">
<path d="M21.5332 2.68433L22.124 3.27515C22.583 3.73413 22.583 4.47632 22.124 4.93042L20.7031 6.3562L18.4521 4.10522L19.873 2.68433C20.332 2.22534 21.0742 2.22534 21.5283 2.68433H21.5332ZM10.2441 12.3181L16.7969 5.7605L19.0479 8.01147L12.4902 14.5642C12.3486 14.7058 12.1729 14.8083 11.9824 14.8621L9.12598 15.6775L9.94141 12.821C9.99512 12.6306 10.0977 12.4548 10.2393 12.3132L10.2441 12.3181ZM18.2178 1.02905L8.58398 10.658C8.15918 11.0828 7.85156 11.6052 7.69043 12.1765L6.29395 17.0593C6.17676 17.4695 6.28906 17.9089 6.5918 18.2117C6.89453 18.5144 7.33398 18.6267 7.74414 18.5095L12.627 17.113C13.2031 16.947 13.7256 16.6394 14.1455 16.2195L23.7793 6.59058C25.1514 5.21851 25.1514 2.99194 23.7793 1.61987L23.1885 1.02905C21.8164 -0.343018 19.5898 -0.343018 18.2178 1.02905ZM4.29688 2.93335C1.92383 2.93335 0 4.85718 0 7.23022V20.5115C0 22.8845 1.92383 24.8084 4.29688 24.8084H17.5781C19.9512 24.8084 21.875 22.8845 21.875 20.5115V15.0427C21.875 14.3933 21.3525 13.8709 20.7031 13.8709C20.0537 13.8709 19.5312 14.3933 19.5312 15.0427V20.5115C19.5312 21.5906 18.6572 22.4646 17.5781 22.4646H4.29688C3.21777 22.4646 2.34375 21.5906 2.34375 20.5115V7.23022C2.34375 6.15112 3.21777 5.2771 4.29688 5.2771H9.76562C10.415 5.2771 10.9375 4.75464 10.9375 4.10522C10.9375 3.45581 10.415 2.93335 9.76562 2.93335H4.29688Z" fill="#8A8787"/>
</svg>
